<?xml version="1.0" encoding="UTF-8"?>
<svg width="15px" height="16px" viewBox="0 0 15 16" version="1.1" xmlns="http://www.w3.org/2000/svg" xmlns:xlink="http://www.w3.org/1999/xlink">
    <title>Group 3</title>
    <defs>
        <polygon id="path-1" points="0 0 15 0 15 15.4285714 0 15.4285714"></polygon>
    </defs>
    <g id="Welcome" stroke="none" stroke-width="1" fill="none" fill-rule="evenodd">
        <g id="Homepage-UI" transform="translate(-130.000000, -376.000000)">
            <g id="Group-3" transform="translate(130.000000, 376.000000)">
                <mask id="mask-2" fill="white">
                    <use xlink:href="#path-1"></use>
                </mask>
                <g id="Clip-2"></g>
                <path d="M11.2416185,11.3465441 C11.149556,11.1629398 11.1898138,11.0563067 11.3512019,10.9296937 C12.4671874,10.0540965 14.8831942,8.12057407 15,8.02005819 C14.7280476,7.87293709 14.4907358,7.73844649 14.2466028,7.61491406 C14.1096013,7.54551233 14.0605607,7.46255593 14.1063913,7.32097993 C14.1655521,7.13821178 14.5176189,5.72042737 14.6572509,5.16701792 C14.5370123,5.1896384 13.4333761,5.42358867 12.9723946,5.53290629 C12.7718186,5.58047969 12.658089,5.54527273 12.5798024,5.35343879 C12.4290249,4.98424977 12.2472181,4.62535879 12.0634942,4.23042468 C11.2284667,5.0010611 10.4747575,5.80518814 9.64204829,6.53819711 C9.61012733,6.52239799 9.57820636,6.50659886 9.54632998,6.49079974 C9.91382231,4.98156524 10.2812701,3.47233075 10.6568318,1.9299577 C10.1028961,2.14604044 9.58511663,2.33888658 9.07732363,2.55131659 C8.90791069,2.62217061 8.83657893,2.57780983 8.77095371,2.44556368 C8.58254868,2.06541649 7.7718186,0.463543679 7.53753834,0 C7.33879021,0.35074937 6.41985876,1.96344833 6.13970326,2.4593384 C6.07751088,2.56936016 6.00002675,2.59541332 5.87417077,2.54040244 C5.67074149,2.45150485 4.66367073,2.05098164 4.32390862,1.91398254 C4.68658606,3.52606538 5.09384585,5.07834038 5.4115397,6.64619447 C5.37957415,6.66080536 5.3476086,6.67546026 5.31564306,6.69011516 C4.47852022,5.89901469 3.64144197,5.10787022 2.78024467,4.29392924 C2.65291747,4.59930564 2.53999037,4.86670253 2.42978279,5.13497958 C2.22809223,5.62598469 2.31935231,5.57062175 1.76216207,5.48770935 C1.29574149,5.41826361 0.830792139,5.34050023 0.342035809,5.26269284 C0.360091661,5.34595731 0.77091804,6.77870468 0.978716385,7.43773502 C1.03752051,7.62415589 0.982639632,7.71322951 0.785986875,7.76652405 C0.529058777,7.83618982 0.276633497,7.91945429 0,8.00364294 C0.0566641701,8.06072223 2.39233362,10.0217061 3.5294511,10.9710618 C3.87474142,11.2593629 3.87496433,11.2593188 3.67434375,11.6456713 C3.64126364,11.7093518 3.31594622,12.3034694 3.16663992,12.5755752 C3.37996647,12.5368035 6.4144643,11.8801496 7.29514409,11.6894159 C7.25551038,12.9341141 7.21587667,14.1788123 7.17624296,15.4235544 C7.39202154,15.4302438 7.60797846,15.4302438 7.82380163,15.4235544 C7.78398959,14.1730031 7.74417754,12.9224518 7.7043655,11.6718564 C8.45575647,11.8242146 11.4633711,12.4335591 11.7499019,12.4859294 C11.5693434,12.0759444 11.4212854,11.7047749 11.2416185,11.3465441" id="Fill-1" fill="#E03930" mask="url(#mask-2)"></path>
            </g>
        </g>
    </g>
</svg>